<?xml version="1.0" encoding="iso-8859-1"?>
<!-- Generator: Adobe Illustrator 19.0.0, SVG Export Plug-In . SVG Version: 6.00 Build 0)  -->
<svg version="1.1" id="Layer_1" xmlns="http://www.w3.org/2000/svg" xmlns:xlink="http://www.w3.org/1999/xlink" x="0px" y="0px"
	 viewBox="0 0 512 512" style="enable-background:new 0 0 512 512;" xml:space="preserve">
<circle style="fill:#273B7A;" cx="256" cy="256" r="256"/>
<path style="fill:#121149;" d="M510.974,233.167L389.863,112.054c-39.383,31.668-93.424,51.393-113.174,99.125
	c-8.62,18.963-12.067,39.65-18.963,58.613c-13.791,34.478-10.343,72.404-34.478,101.71c-8.482,10.602-16.481,23.652-26.367,35.157
	L298.672,508.44C419.742,488.124,512,382.845,512,256C512,248.303,511.64,240.692,510.974,233.167z"/>
<path style="fill:#84A1A3;" d="M389.863,112.054l-64.598,11.047c-20.116-10.519-43.841-16.219-69.265-16.219
	c-25.178,0-48.695,5.58-68.684,15.905l-62.764-10.733l30.704,34.607c-19.154,20.163-30.704,47.252-30.704,79.603
	c0,73.073,58.851,210.746,131.448,210.746s131.448-137.673,131.448-210.746c0-31.646-11.052-58.261-29.465-78.279L389.863,112.054z"
	/>
<path style="fill:#617777;" d="M389.863,112.054l-64.598,11.047c-20.039-10.48-43.661-16.172-68.975-16.215v330.116
	c72.464-0.364,131.16-137.762,131.16-210.737c0-31.646-11.052-58.261-29.465-78.279L389.863,112.054z"/>
<path style="fill:#FFFFFF;" d="M299.458,167.333c-18.899,0-35.287,10.709-43.456,26.383c-8.17-15.674-24.559-26.383-43.456-26.383
	c-27.055,0-48.988,21.933-48.988,48.988s21.933,48.988,48.988,48.988c18.899,0,35.287-10.709,43.456-26.383
	c8.17,15.674,24.559,26.383,43.456,26.383c27.055,0,48.988-21.933,48.988-48.988C348.444,189.266,326.513,167.333,299.458,167.333z"
	/>
<path style="fill:#E8E8E8;" d="M299.458,167.333c-18.691,0-34.911,10.481-43.17,25.872v46.23
	c8.259,15.391,24.479,25.872,43.17,25.872c27.055,0,48.988-21.933,48.988-48.988C348.444,189.266,326.513,167.333,299.458,167.333z"
	/>
<polygon style="fill:#263A7A;" points="256.288,235.098 239.787,244.415 256.288,282.638 272.789,244.415 "/>
<polygon style="fill:#121149;" points="256.288,235.098 256.288,282.638 272.789,244.415 "/>
<circle style="fill:#71E2EF;" cx="299.425" cy="216.316" r="17.256"/>
<circle style="fill:#273B7A;" cx="299.425" cy="216.316" r="9.481"/>
<circle style="fill:#71E2EF;" cx="212.575" cy="216.316" r="17.256"/>
<circle style="fill:#273B7A;" cx="212.575" cy="216.316" r="9.481"/>
<g>
	<path style="fill:#ACC5C6;" d="M219.689,306.567c0,10.09-8.18,18.268-18.268,18.268c-10.088,0-18.268-8.18-18.268-18.268H219.689z"
		/>
	<path style="fill:#ACC5C6;" d="M256.228,306.567c0,10.09-8.18,18.268-18.268,18.268c-10.088,0-18.268-8.18-18.268-18.268H256.228z"
		/>
</g>
<g>
	<path style="fill:#8CA5A5;" d="M292.311,306.567c0,10.09-8.18,18.268-18.268,18.268c-10.088,0-18.268-8.18-18.268-18.268H292.311z"
		/>
	<path style="fill:#8CA5A5;" d="M328.849,306.567c0,10.09-8.18,18.268-18.268,18.268c-10.088,0-18.268-8.18-18.268-18.268H328.849z"
		/>
</g>
<g>
	<path style="fill:#ACC5C6;" d="M237.958,336.229c0,10.09-8.18,18.268-18.268,18.268c-10.09,0-18.268-8.18-18.268-18.268H237.958z"
		/>
	<path style="fill:#ACC5C6;" d="M274.496,336.229c0,10.09-8.18,18.268-18.268,18.268c-10.088,0-18.268-8.18-18.268-18.268H274.496z"
		/>
</g>
<g>
	<path style="fill:#8CA5A5;" d="M274.496,336.229h-18.208v18.266C266.35,354.463,274.496,346.298,274.496,336.229z"/>
	<path style="fill:#8CA5A5;" d="M310.579,336.229c0,10.09-8.18,18.268-18.268,18.268c-10.088,0-18.268-8.18-18.268-18.268H310.579z"
		/>
</g>
<path style="fill:#ACC5C6;" d="M256,365.89c0,10.09-8.18,18.268-18.268,18.268s-18.268-8.18-18.268-18.268H256z"/>
<path style="fill:#8CA5A5;" d="M292.538,365.89c0,10.09-8.18,18.268-18.268,18.268s-18.268-8.18-18.268-18.268H292.538z"/>
<g>
</g>
<g>
</g>
<g>
</g>
<g>
</g>
<g>
</g>
<g>
</g>
<g>
</g>
<g>
</g>
<g>
</g>
<g>
</g>
<g>
</g>
<g>
</g>
<g>
</g>
<g>
</g>
<g>
</g>
</svg>
